<?xml version="1.0" encoding="utf-8" standalone="no"?>
<!DOCTYPE svg PUBLIC "-//W3C//DTD SVG 1.1//EN"
  "http://www.w3.org/Graphics/SVG/1.1/DTD/svg11.dtd">
<svg height="360pt" version="1.1" viewBox="0 0 432 360" width="432pt" xmlns="http://www.w3.org/2000/svg" xmlns:xlink="http://www.w3.org/1999/xlink">
 <metadata>
  <rdf:RDF xmlns:cc="http://creativecommons.org/ns#" xmlns:dc="http://purl.org/dc/elements/1.1/" xmlns:rdf="http://www.w3.org/1999/02/22-rdf-syntax-ns#">
   <cc:Work>
    <dc:type rdf:resource="http://purl.org/dc/dcmitype/StillImage"/>
    <dc:date>2022-04-30T22:43:07.221380</dc:date>
    <dc:format>image/svg+xml</dc:format>
    <dc:creator>
     <cc:Agent>
      <dc:title>Matplotlib v3.4.2, https://matplotlib.org/</dc:title>
     </cc:Agent>
    </dc:creator>
   </cc:Work>
  </rdf:RDF>
 </metadata>
 <defs>
  <style type="text/css">*{stroke-linecap:butt;stroke-linejoin:round;}</style>
 </defs>
 <g id="figure_1">
  <g id="patch_1">
   <path d="M 0 360 
L 432 360 
L 432 0 
L 0 0 
z
" style="fill:#ffffff;"/>
  </g>
  <g id="axes_1">
   <g id="patch_2">
    <path d="M 54 320.4 
L 388.8 320.4 
L 388.8 43.2 
L 54 43.2 
z
" style="fill:#ffffff;"/>
   </g>
   <g id="matplotlib.axis_1">
    <g id="xtick_1">
     <g id="line2d_1">
      <defs>
       <path d="M 0 0 
L 0 3.5 
" id="meb86260522" style="stroke:#000000;stroke-width:0.8;"/>
      </defs>
      <g>
       <use style="stroke:#000000;stroke-width:0.8;" x="69.218182" xlink:href="#meb86260522" y="320.4"/>
      </g>
     </g>
     <g id="text_1">
      <!-- 0.0 -->
      <g transform="translate(61.266619 334.998438)scale(0.1 -0.1)">
       <defs>
        <path d="M 2034 4250 
Q 1547 4250 1301 3770 
Q 1056 3291 1056 2328 
Q 1056 1369 1301 889 
Q 1547 409 2034 409 
Q 2525 409 2770 889 
Q 3016 1369 3016 2328 
Q 3016 3291 2770 3770 
Q 2525 4250 2034 4250 
z
M 2034 4750 
Q 2819 4750 3233 4129 
Q 3647 3509 3647 2328 
Q 3647 1150 3233 529 
Q 2819 -91 2034 -91 
Q 1250 -91 836 529 
Q 422 1150 422 2328 
Q 422 3509 836 4129 
Q 1250 4750 2034 4750 
z
" id="DejaVuSans-30" transform="scale(0.015625)"/>
        <path d="M 684 794 
L 1344 794 
L 1344 0 
L 684 0 
L 684 794 
z
" id="DejaVuSans-2e" transform="scale(0.015625)"/>
       </defs>
       <use xlink:href="#DejaVuSans-30"/>
       <use x="63.623047" xlink:href="#DejaVuSans-2e"/>
       <use x="95.410156" xlink:href="#DejaVuSans-30"/>
      </g>
     </g>
    </g>
    <g id="xtick_2">
     <g id="line2d_2">
      <g>
       <use style="stroke:#000000;stroke-width:0.8;" x="130.090909" xlink:href="#meb86260522" y="320.4"/>
      </g>
     </g>
     <g id="text_2">
      <!-- 0.2 -->
      <g transform="translate(122.139347 334.998438)scale(0.1 -0.1)">
       <defs>
        <path d="M 1228 531 
L 3431 531 
L 3431 0 
L 469 0 
L 469 531 
Q 828 903 1448 1529 
Q 2069 2156 2228 2338 
Q 2531 2678 2651 2914 
Q 2772 3150 2772 3378 
Q 2772 3750 2511 3984 
Q 2250 4219 1831 4219 
Q 1534 4219 1204 4116 
Q 875 4013 500 3803 
L 500 4441 
Q 881 4594 1212 4672 
Q 1544 4750 1819 4750 
Q 2544 4750 2975 4387 
Q 3406 4025 3406 3419 
Q 3406 3131 3298 2873 
Q 3191 2616 2906 2266 
Q 2828 2175 2409 1742 
Q 1991 1309 1228 531 
z
" id="DejaVuSans-32" transform="scale(0.015625)"/>
       </defs>
       <use xlink:href="#DejaVuSans-30"/>
       <use x="63.623047" xlink:href="#DejaVuSans-2e"/>
       <use x="95.410156" xlink:href="#DejaVuSans-32"/>
      </g>
     </g>
    </g>
    <g id="xtick_3">
     <g id="line2d_3">
      <g>
       <use style="stroke:#000000;stroke-width:0.8;" x="190.963636" xlink:href="#meb86260522" y="320.4"/>
      </g>
     </g>
     <g id="text_3">
      <!-- 0.4 -->
      <g transform="translate(183.012074 334.998438)scale(0.1 -0.1)">
       <defs>
        <path d="M 2419 4116 
L 825 1625 
L 2419 1625 
L 2419 4116 
z
M 2253 4666 
L 3047 4666 
L 3047 1625 
L 3713 1625 
L 3713 1100 
L 3047 1100 
L 3047 0 
L 2419 0 
L 2419 1100 
L 313 1100 
L 313 1709 
L 2253 4666 
z
" id="DejaVuSans-34" transform="scale(0.015625)"/>
       </defs>
       <use xlink:href="#DejaVuSans-30"/>
       <use x="63.623047" xlink:href="#DejaVuSans-2e"/>
       <use x="95.410156" xlink:href="#DejaVuSans-34"/>
      </g>
     </g>
    </g>
    <g id="xtick_4">
     <g id="line2d_4">
      <g>
       <use style="stroke:#000000;stroke-width:0.8;" x="251.836364" xlink:href="#meb86260522" y="320.4"/>
      </g>
     </g>
     <g id="text_4">
      <!-- 0.6 -->
      <g transform="translate(243.884801 334.998438)scale(0.1 -0.1)">
       <defs>
        <path d="M 2113 2584 
Q 1688 2584 1439 2293 
Q 1191 2003 1191 1497 
Q 1191 994 1439 701 
Q 1688 409 2113 409 
Q 2538 409 2786 701 
Q 3034 994 3034 1497 
Q 3034 2003 2786 2293 
Q 2538 2584 2113 2584 
z
M 3366 4563 
L 3366 3988 
Q 3128 4100 2886 4159 
Q 2644 4219 2406 4219 
Q 1781 4219 1451 3797 
Q 1122 3375 1075 2522 
Q 1259 2794 1537 2939 
Q 1816 3084 2150 3084 
Q 2853 3084 3261 2657 
Q 3669 2231 3669 1497 
Q 3669 778 3244 343 
Q 2819 -91 2113 -91 
Q 1303 -91 875 529 
Q 447 1150 447 2328 
Q 447 3434 972 4092 
Q 1497 4750 2381 4750 
Q 2619 4750 2861 4703 
Q 3103 4656 3366 4563 
z
" id="DejaVuSans-36" transform="scale(0.015625)"/>
       </defs>
       <use xlink:href="#DejaVuSans-30"/>
       <use x="63.623047" xlink:href="#DejaVuSans-2e"/>
       <use x="95.410156" xlink:href="#DejaVuSans-36"/>
      </g>
     </g>
    </g>
    <g id="xtick_5">
     <g id="line2d_5">
      <g>
       <use style="stroke:#000000;stroke-width:0.8;" x="312.709091" xlink:href="#meb86260522" y="320.4"/>
      </g>
     </g>
     <g id="text_5">
      <!-- 0.8 -->
      <g transform="translate(304.757528 334.998438)scale(0.1 -0.1)">
       <defs>
        <path d="M 2034 2216 
Q 1584 2216 1326 1975 
Q 1069 1734 1069 1313 
Q 1069 891 1326 650 
Q 1584 409 2034 409 
Q 2484 409 2743 651 
Q 3003 894 3003 1313 
Q 3003 1734 2745 1975 
Q 2488 2216 2034 2216 
z
M 1403 2484 
Q 997 2584 770 2862 
Q 544 3141 544 3541 
Q 544 4100 942 4425 
Q 1341 4750 2034 4750 
Q 2731 4750 3128 4425 
Q 3525 4100 3525 3541 
Q 3525 3141 3298 2862 
Q 3072 2584 2669 2484 
Q 3125 2378 3379 2068 
Q 3634 1759 3634 1313 
Q 3634 634 3220 271 
Q 2806 -91 2034 -91 
Q 1263 -91 848 271 
Q 434 634 434 1313 
Q 434 1759 690 2068 
Q 947 2378 1403 2484 
z
M 1172 3481 
Q 1172 3119 1398 2916 
Q 1625 2713 2034 2713 
Q 2441 2713 2670 2916 
Q 2900 3119 2900 3481 
Q 2900 3844 2670 4047 
Q 2441 4250 2034 4250 
Q 1625 4250 1398 4047 
Q 1172 3844 1172 3481 
z
" id="DejaVuSans-38" transform="scale(0.015625)"/>
       </defs>
       <use xlink:href="#DejaVuSans-30"/>
       <use x="63.623047" xlink:href="#DejaVuSans-2e"/>
       <use x="95.410156" xlink:href="#DejaVuSans-38"/>
      </g>
     </g>
    </g>
    <g id="xtick_6">
     <g id="line2d_6">
      <g>
       <use style="stroke:#000000;stroke-width:0.8;" x="373.581818" xlink:href="#meb86260522" y="320.4"/>
      </g>
     </g>
     <g id="text_6">
      <!-- 1.0 -->
      <g transform="translate(365.630256 334.998438)scale(0.1 -0.1)">
       <defs>
        <path d="M 794 531 
L 1825 531 
L 1825 4091 
L 703 3866 
L 703 4441 
L 1819 4666 
L 2450 4666 
L 2450 531 
L 3481 531 
L 3481 0 
L 794 0 
L 794 531 
z
" id="DejaVuSans-31" transform="scale(0.015625)"/>
       </defs>
       <use xlink:href="#DejaVuSans-31"/>
       <use x="63.623047" xlink:href="#DejaVuSans-2e"/>
       <use x="95.410156" xlink:href="#DejaVuSans-30"/>
      </g>
     </g>
    </g>
    <g id="text_7">
     <!-- fpr -->
     <g transform="translate(214.410156 348.676562)scale(0.1 -0.1)">
      <defs>
       <path d="M 2375 4863 
L 2375 4384 
L 1825 4384 
Q 1516 4384 1395 4259 
Q 1275 4134 1275 3809 
L 1275 3500 
L 2222 3500 
L 2222 3053 
L 1275 3053 
L 1275 0 
L 697 0 
L 697 3053 
L 147 3053 
L 147 3500 
L 697 3500 
L 697 3744 
Q 697 4328 969 4595 
Q 1241 4863 1831 4863 
L 2375 4863 
z
" id="DejaVuSans-66" transform="scale(0.015625)"/>
       <path d="M 1159 525 
L 1159 -1331 
L 581 -1331 
L 581 3500 
L 1159 3500 
L 1159 2969 
Q 1341 3281 1617 3432 
Q 1894 3584 2278 3584 
Q 2916 3584 3314 3078 
Q 3713 2572 3713 1747 
Q 3713 922 3314 415 
Q 2916 -91 2278 -91 
Q 1894 -91 1617 61 
Q 1341 213 1159 525 
z
M 3116 1747 
Q 3116 2381 2855 2742 
Q 2594 3103 2138 3103 
Q 1681 3103 1420 2742 
Q 1159 2381 1159 1747 
Q 1159 1113 1420 752 
Q 1681 391 2138 391 
Q 2594 391 2855 752 
Q 3116 1113 3116 1747 
z
" id="DejaVuSans-70" transform="scale(0.015625)"/>
       <path d="M 2631 2963 
Q 2534 3019 2420 3045 
Q 2306 3072 2169 3072 
Q 1681 3072 1420 2755 
Q 1159 2438 1159 1844 
L 1159 0 
L 581 0 
L 581 3500 
L 1159 3500 
L 1159 2956 
Q 1341 3275 1631 3429 
Q 1922 3584 2338 3584 
Q 2397 3584 2469 3576 
Q 2541 3569 2628 3553 
L 2631 2963 
z
" id="DejaVuSans-72" transform="scale(0.015625)"/>
      </defs>
      <use xlink:href="#DejaVuSans-66"/>
      <use x="35.205078" xlink:href="#DejaVuSans-70"/>
      <use x="98.681641" xlink:href="#DejaVuSans-72"/>
     </g>
    </g>
   </g>
   <g id="matplotlib.axis_2">
    <g id="ytick_1">
     <g id="line2d_7">
      <defs>
       <path d="M 0 0 
L -3.5 0 
" id="md5872a42a3" style="stroke:#000000;stroke-width:0.8;"/>
      </defs>
      <g>
       <use style="stroke:#000000;stroke-width:0.8;" x="54" xlink:href="#md5872a42a3" y="307.8"/>
      </g>
     </g>
     <g id="text_8">
      <!-- 0.0 -->
      <g transform="translate(31.096875 311.599219)scale(0.1 -0.1)">
       <use xlink:href="#DejaVuSans-30"/>
       <use x="63.623047" xlink:href="#DejaVuSans-2e"/>
       <use x="95.410156" xlink:href="#DejaVuSans-30"/>
      </g>
     </g>
    </g>
    <g id="ytick_2">
     <g id="line2d_8">
      <g>
       <use style="stroke:#000000;stroke-width:0.8;" x="54" xlink:href="#md5872a42a3" y="257.4"/>
      </g>
     </g>
     <g id="text_9">
      <!-- 0.2 -->
      <g transform="translate(31.096875 261.199219)scale(0.1 -0.1)">
       <use xlink:href="#DejaVuSans-30"/>
       <use x="63.623047" xlink:href="#DejaVuSans-2e"/>
       <use x="95.410156" xlink:href="#DejaVuSans-32"/>
      </g>
     </g>
    </g>
    <g id="ytick_3">
     <g id="line2d_9">
      <g>
       <use style="stroke:#000000;stroke-width:0.8;" x="54" xlink:href="#md5872a42a3" y="207"/>
      </g>
     </g>
     <g id="text_10">
      <!-- 0.4 -->
      <g transform="translate(31.096875 210.799219)scale(0.1 -0.1)">
       <use xlink:href="#DejaVuSans-30"/>
       <use x="63.623047" xlink:href="#DejaVuSans-2e"/>
       <use x="95.410156" xlink:href="#DejaVuSans-34"/>
      </g>
     </g>
    </g>
    <g id="ytick_4">
     <g id="line2d_10">
      <g>
       <use style="stroke:#000000;stroke-width:0.8;" x="54" xlink:href="#md5872a42a3" y="156.6"/>
      </g>
     </g>
     <g id="text_11">
      <!-- 0.6 -->
      <g transform="translate(31.096875 160.399219)scale(0.1 -0.1)">
       <use xlink:href="#DejaVuSans-30"/>
       <use x="63.623047" xlink:href="#DejaVuSans-2e"/>
       <use x="95.410156" xlink:href="#DejaVuSans-36"/>
      </g>
     </g>
    </g>
    <g id="ytick_5">
     <g id="line2d_11">
      <g>
       <use style="stroke:#000000;stroke-width:0.8;" x="54" xlink:href="#md5872a42a3" y="106.2"/>
      </g>
     </g>
     <g id="text_12">
      <!-- 0.8 -->
      <g transform="translate(31.096875 109.999219)scale(0.1 -0.1)">
       <use xlink:href="#DejaVuSans-30"/>
       <use x="63.623047" xlink:href="#DejaVuSans-2e"/>
       <use x="95.410156" xlink:href="#DejaVuSans-38"/>
      </g>
     </g>
    </g>
    <g id="ytick_6">
     <g id="line2d_12">
      <g>
       <use style="stroke:#000000;stroke-width:0.8;" x="54" xlink:href="#md5872a42a3" y="55.8"/>
      </g>
     </g>
     <g id="text_13">
      <!-- 1.0 -->
      <g transform="translate(31.096875 59.599219)scale(0.1 -0.1)">
       <use xlink:href="#DejaVuSans-31"/>
       <use x="63.623047" xlink:href="#DejaVuSans-2e"/>
       <use x="95.410156" xlink:href="#DejaVuSans-30"/>
      </g>
     </g>
    </g>
    <g id="text_14">
     <!-- tpr -->
     <g transform="translate(25.017187 188.989844)rotate(-90)scale(0.1 -0.1)">
      <defs>
       <path d="M 1172 4494 
L 1172 3500 
L 2356 3500 
L 2356 3053 
L 1172 3053 
L 1172 1153 
Q 1172 725 1289 603 
Q 1406 481 1766 481 
L 2356 481 
L 2356 0 
L 1766 0 
Q 1100 0 847 248 
Q 594 497 594 1153 
L 594 3053 
L 172 3053 
L 172 3500 
L 594 3500 
L 594 4494 
L 1172 4494 
z
" id="DejaVuSans-74" transform="scale(0.015625)"/>
      </defs>
      <use xlink:href="#DejaVuSans-74"/>
      <use x="39.208984" xlink:href="#DejaVuSans-70"/>
      <use x="102.685547" xlink:href="#DejaVuSans-72"/>
     </g>
    </g>
   </g>
   <g id="line2d_13">
    <path clip-path="url(#p6be8c7b29d)" d="M 69.218182 307.8 
L 373.581818 55.8 
" style="fill:none;stroke:#1f77b4;stroke-dasharray:5.55,2.4;stroke-dashoffset:0;stroke-width:1.5;"/>
   </g>
   <g id="line2d_14">
    <path clip-path="url(#p6be8c7b29d)" d="M 69.218182 307.8 
L 69.218182 283.894862 
L 71.489552 283.894862 
L 71.489552 270.448221 
L 73.760923 270.448221 
L 73.760923 255.009486 
L 76.032293 255.009486 
L 76.032293 235.586561 
L 78.303664 235.586561 
L 78.303664 223.633992 
L 80.575034 223.633992 
L 80.575034 222.139921 
L 82.846404 222.139921 
L 82.846404 219.151779 
L 85.117775 219.151779 
L 85.117775 212.67747 
L 87.389145 212.67747 
L 87.389145 212.179447 
L 89.660516 212.179447 
L 89.660516 204.211067 
L 96.474627 204.211067 
L 96.474627 199.23083 
L 98.745997 199.23083 
L 98.745997 198.234783 
L 103.288738 198.234783 
L 103.288738 195.744664 
L 105.560109 195.744664 
L 105.560109 183.792095 
L 107.831479 183.792095 
L 107.831479 178.811858 
L 110.102849 178.811858 
L 110.102849 168.851383 
L 112.37422 168.851383 
L 112.37422 165.365217 
L 114.64559 165.365217 
L 114.64559 158.392885 
L 116.916961 158.392885 
L 116.916961 151.918577 
L 119.188331 151.918577 
L 119.188331 150.424506 
L 121.459701 150.424506 
L 121.459701 148.432411 
L 123.731072 148.432411 
L 123.731072 143.452174 
L 126.002442 143.452174 
L 126.002442 142.456126 
L 128.273813 142.456126 
L 128.273813 137.973913 
L 130.545183 137.973913 
L 130.545183 133.4917 
L 132.816554 133.4917 
L 132.816554 131.499605 
L 135.087924 131.499605 
L 135.087924 128.013439 
L 137.359294 128.013439 
L 137.359294 127.017391 
L 139.630665 127.017391 
L 139.630665 121.041107 
L 141.902035 121.041107 
L 141.902035 113.570751 
L 144.173406 113.570751 
L 144.173406 111.080632 
L 146.444776 111.080632 
L 146.444776 107.594466 
L 148.716147 107.594466 
L 148.716147 103.112253 
L 150.987517 103.112253 
L 150.987517 101.618182 
L 153.258887 101.618182 
L 153.258887 100.124111 
L 155.530258 100.124111 
L 155.530258 99.128063 
L 157.801628 99.128063 
L 157.801628 97.633992 
L 160.072999 97.633992 
L 160.072999 94.147826 
L 162.344369 94.147826 
L 162.344369 85.183399 
L 164.615739 85.183399 
L 164.615739 84.187352 
L 169.15848 84.187352 
L 169.15848 81.199209 
L 171.429851 81.199209 
L 171.429851 76.218972 
L 173.701221 76.218972 
L 173.701221 75.222925 
L 175.972592 75.222925 
L 175.972592 74.226877 
L 178.243962 74.226877 
L 178.243962 73.23083 
L 180.515332 73.23083 
L 180.515332 72.732806 
L 185.058073 72.732806 
L 185.058073 72.234783 
L 198.686296 72.234783 
L 198.686296 70.242688 
L 203.229037 70.242688 
L 203.229037 69.24664 
L 210.043148 69.24664 
L 210.043148 68.748617 
L 214.585889 68.748617 
L 214.585889 68.250593 
L 221.4 68.250593 
L 221.4 67.752569 
L 228.214111 67.752569 
L 228.214111 67.254545 
L 232.756852 67.254545 
L 232.756852 66.756522 
L 280.455631 66.756522 
L 280.455631 66.258498 
L 282.727001 66.258498 
L 282.727001 65.760474 
L 303.169335 65.760474 
L 303.169335 65.262451 
L 307.712076 65.262451 
L 307.712076 63.270356 
L 309.983446 63.270356 
L 309.983446 62.772332 
L 316.797558 62.772332 
L 316.797558 62.274308 
L 319.068928 62.274308 
L 319.068928 61.776285 
L 330.42578 61.776285 
L 330.42578 60.780237 
L 332.697151 60.780237 
L 332.697151 60.282213 
L 339.511262 60.282213 
L 339.511262 59.78419 
L 344.054003 59.78419 
L 344.054003 58.788142 
L 346.325373 58.788142 
L 346.325373 58.290119 
L 353.139484 58.290119 
L 353.139484 57.792095 
L 362.224966 57.792095 
L 362.224966 57.294071 
L 366.767707 57.294071 
L 366.767707 56.796047 
L 371.310448 56.796047 
L 371.310448 56.298024 
L 373.581818 56.298024 
L 373.581818 55.8 
L 373.581818 55.8 
" style="fill:none;stroke:#ff7f0e;stroke-linecap:square;stroke-width:1.5;"/>
   </g>
   <g id="line2d_15">
    <path clip-path="url(#p6be8c7b29d)" d="M 69.218182 307.8 
L 373.581818 55.8 
" style="fill:none;stroke:#2ca02c;stroke-dasharray:5.55,2.4;stroke-dashoffset:0;stroke-width:1.5;"/>
   </g>
   <g id="line2d_16">
    <path clip-path="url(#p6be8c7b29d)" d="M 69.218182 307.8 
L 69.218182 307.301976 
L 69.218182 281.404743 
L 71.489552 281.404743 
L 71.489552 271.942292 
L 73.760923 271.942292 
L 73.760923 192.258498 
L 76.032293 192.258498 
L 76.032293 161.381028 
L 78.303664 161.381028 
L 78.303664 158.392885 
L 80.575034 158.392885 
L 80.575034 152.416601 
L 82.846404 152.416601 
L 82.846404 144.448221 
L 85.117775 144.448221 
L 85.117775 140.464032 
L 87.389145 140.464032 
L 87.389145 135.981818 
L 89.660516 135.981818 
L 89.660516 112.574704 
L 91.931886 112.574704 
L 91.931886 109.586561 
L 94.203256 109.586561 
L 94.203256 101.618182 
L 96.474627 101.618182 
L 96.474627 99.128063 
L 98.745997 99.128063 
L 98.745997 95.641897 
L 101.017368 95.641897 
L 101.017368 95.143874 
L 105.560109 95.143874 
L 105.560109 94.64585 
L 112.37422 94.64585 
L 112.37422 92.653755 
L 121.459701 92.653755 
L 121.459701 90.163636 
L 123.731072 90.163636 
L 123.731072 88.171542 
L 126.002442 88.171542 
L 126.002442 87.175494 
L 128.273813 87.175494 
L 128.273813 86.67747 
L 130.545183 86.67747 
L 130.545183 86.179447 
L 135.087924 86.179447 
L 135.087924 85.681423 
L 139.630665 85.681423 
L 139.630665 84.685375 
L 141.902035 84.685375 
L 141.902035 84.187352 
L 144.173406 84.187352 
L 144.173406 83.191304 
L 146.444776 83.191304 
L 146.444776 82.195257 
L 153.258887 82.195257 
L 153.258887 79.207115 
L 157.801628 79.207115 
L 157.801628 78.709091 
L 160.072999 78.709091 
L 160.072999 78.211067 
L 164.615739 78.211067 
L 164.615739 77.713043 
L 166.88711 77.713043 
L 166.88711 76.218972 
L 173.701221 76.218972 
L 173.701221 75.222925 
L 180.515332 75.222925 
L 180.515332 73.728854 
L 182.786703 73.728854 
L 182.786703 73.23083 
L 185.058073 73.23083 
L 185.058073 72.234783 
L 200.957666 72.234783 
L 200.957666 71.736759 
L 205.500407 71.736759 
L 205.500407 70.740711 
L 207.771777 70.740711 
L 207.771777 70.242688 
L 210.043148 70.242688 
L 210.043148 69.744664 
L 212.314518 69.744664 
L 212.314518 69.24664 
L 219.12863 69.24664 
L 219.12863 68.748617 
L 239.570963 68.748617 
L 239.570963 68.250593 
L 241.842334 68.250593 
L 241.842334 67.752569 
L 255.470556 67.752569 
L 255.470556 66.756522 
L 260.013297 66.756522 
L 260.013297 66.258498 
L 262.284668 66.258498 
L 262.284668 65.262451 
L 271.370149 65.262451 
L 271.370149 64.266403 
L 273.64152 64.266403 
L 273.64152 63.270356 
L 282.727001 63.270356 
L 282.727001 62.772332 
L 294.083853 62.772332 
L 294.083853 62.274308 
L 303.169335 62.274308 
L 303.169335 61.776285 
L 309.983446 61.776285 
L 309.983446 60.780237 
L 321.340299 60.780237 
L 321.340299 60.282213 
L 323.611669 60.282213 
L 323.611669 59.78419 
L 325.883039 59.78419 
L 325.883039 59.286166 
L 328.15441 59.286166 
L 328.15441 58.788142 
L 330.42578 58.788142 
L 330.42578 57.792095 
L 339.511262 57.792095 
L 339.511262 57.294071 
L 346.325373 57.294071 
L 346.325373 56.796047 
L 348.596744 56.796047 
L 348.596744 56.298024 
L 371.310448 56.298024 
L 371.310448 55.8 
L 373.581818 55.8 
" style="fill:none;stroke:#d62728;stroke-linecap:square;stroke-width:1.5;"/>
   </g>
   <g id="line2d_17">
    <path clip-path="url(#p6be8c7b29d)" d="M 69.218182 307.8 
L 373.581818 55.8 
" style="fill:none;stroke:#9467bd;stroke-dasharray:5.55,2.4;stroke-dashoffset:0;stroke-width:1.5;"/>
   </g>
   <g id="line2d_18">
    <path clip-path="url(#p6be8c7b29d)" d="M 69.218182 307.8 
L 69.218182 184.290119 
L 71.489552 184.290119 
L 71.489552 179.807905 
L 73.760923 179.807905 
L 73.760923 176.321739 
L 76.032293 176.321739 
L 76.032293 170.843478 
L 78.303664 170.843478 
L 78.303664 166.859289 
L 80.575034 166.859289 
L 80.575034 166.361265 
L 82.846404 166.361265 
L 82.846404 164.36917 
L 85.117775 164.36917 
L 85.117775 158.392885 
L 87.389145 158.392885 
L 87.389145 156.898814 
L 89.660516 156.898814 
L 89.660516 145.942292 
L 91.931886 145.942292 
L 91.931886 143.950198 
L 94.203256 143.950198 
L 94.203256 130.005534 
L 96.474627 130.005534 
L 96.474627 127.515415 
L 98.745997 127.515415 
L 98.745997 126.519368 
L 101.017368 126.519368 
L 101.017368 124.527273 
L 103.288738 124.527273 
L 103.288738 122.037154 
L 105.560109 122.037154 
L 105.560109 121.53913 
L 107.831479 121.53913 
L 107.831479 120.045059 
L 110.102849 120.045059 
L 110.102849 118.550988 
L 114.64559 118.550988 
L 114.64559 116.558893 
L 116.916961 116.558893 
L 116.916961 113.072727 
L 119.188331 113.072727 
L 119.188331 112.574704 
L 121.459701 112.574704 
L 121.459701 104.606324 
L 123.731072 104.606324 
L 123.731072 102.614229 
L 126.002442 102.614229 
L 126.002442 91.657708 
L 128.273813 91.657708 
L 128.273813 88.171542 
L 132.816554 88.171542 
L 132.816554 85.183399 
L 135.087924 85.183399 
L 135.087924 84.685375 
L 137.359294 84.685375 
L 137.359294 82.195257 
L 139.630665 82.195257 
L 139.630665 81.199209 
L 141.902035 81.199209 
L 141.902035 80.701186 
L 144.173406 80.701186 
L 144.173406 80.203162 
L 148.716147 80.203162 
L 148.716147 78.709091 
L 153.258887 78.709091 
L 153.258887 77.713043 
L 155.530258 77.713043 
L 155.530258 75.720949 
L 157.801628 75.720949 
L 157.801628 73.23083 
L 162.344369 73.23083 
L 162.344369 72.234783 
L 166.88711 72.234783 
L 166.88711 70.740711 
L 169.15848 70.740711 
L 169.15848 70.242688 
L 171.429851 70.242688 
L 171.429851 69.24664 
L 178.243962 69.24664 
L 178.243962 68.748617 
L 187.329444 68.748617 
L 187.329444 68.250593 
L 196.414925 68.250593 
L 196.414925 67.752569 
L 200.957666 67.752569 
L 200.957666 67.254545 
L 212.314518 67.254545 
L 212.314518 66.756522 
L 216.857259 66.756522 
L 216.857259 66.258498 
L 232.756852 66.258498 
L 232.756852 65.760474 
L 244.113704 65.760474 
L 244.113704 64.764427 
L 246.385075 64.764427 
L 246.385075 64.266403 
L 248.656445 64.266403 
L 248.656445 63.768379 
L 260.013297 63.768379 
L 260.013297 62.772332 
L 269.098779 62.772332 
L 269.098779 62.274308 
L 275.91289 62.274308 
L 275.91289 61.776285 
L 280.455631 61.776285 
L 280.455631 61.278261 
L 296.355224 61.278261 
L 296.355224 60.780237 
L 323.611669 60.780237 
L 323.611669 59.78419 
L 334.968521 59.78419 
L 334.968521 59.286166 
L 344.054003 59.286166 
L 344.054003 58.290119 
L 353.139484 58.290119 
L 353.139484 57.792095 
L 355.410855 57.792095 
L 355.410855 56.796047 
L 357.682225 56.796047 
L 357.682225 56.298024 
L 371.310448 56.298024 
L 371.310448 55.8 
L 373.581818 55.8 
L 373.581818 55.8 
" style="fill:none;stroke:#8c564b;stroke-linecap:square;stroke-width:1.5;"/>
   </g>
   <g id="line2d_19">
    <path clip-path="url(#p6be8c7b29d)" d="M 69.218182 307.8 
L 373.581818 55.8 
" style="fill:none;stroke:#e377c2;stroke-dasharray:5.55,2.4;stroke-dashoffset:0;stroke-width:1.5;"/>
   </g>
   <g id="line2d_20">
    <path clip-path="url(#p6be8c7b29d)" d="M 69.218182 307.8 
L 69.218182 307.301976 
L 69.218182 252.021344 
L 71.489552 252.021344 
L 71.489552 210.187352 
L 76.032293 210.187352 
L 76.032293 209.191304 
L 78.303664 209.191304 
L 78.303664 203.713043 
L 80.575034 203.713043 
L 80.575034 188.772332 
L 82.846404 188.772332 
L 82.846404 184.788142 
L 85.117775 184.788142 
L 85.117775 181.8 
L 87.389145 181.8 
L 87.389145 180.803953 
L 89.660516 180.803953 
L 89.660516 174.329644 
L 94.203256 174.329644 
L 94.203256 170.345455 
L 96.474627 170.345455 
L 96.474627 147.436364 
L 98.745997 147.436364 
L 98.745997 146.440316 
L 101.017368 146.440316 
L 101.017368 144.946245 
L 103.288738 144.946245 
L 103.288738 141.958103 
L 105.560109 141.958103 
L 105.560109 139.467984 
L 107.831479 139.467984 
L 107.831479 136.977866 
L 110.102849 136.977866 
L 110.102849 130.503557 
L 112.37422 130.503557 
L 112.37422 125.52332 
L 116.916961 125.52332 
L 116.916961 113.072727 
L 119.188331 113.072727 
L 119.188331 112.574704 
L 121.459701 112.574704 
L 121.459701 104.606324 
L 126.002442 104.606324 
L 126.002442 104.1083 
L 128.273813 104.1083 
L 128.273813 100.622134 
L 130.545183 100.622134 
L 130.545183 98.132016 
L 132.816554 98.132016 
L 132.816554 94.147826 
L 137.359294 94.147826 
L 137.359294 92.653755 
L 139.630665 92.653755 
L 139.630665 88.171542 
L 141.902035 88.171542 
L 141.902035 87.673518 
L 144.173406 87.673518 
L 144.173406 86.179447 
L 153.258887 86.179447 
L 153.258887 84.685375 
L 155.530258 84.685375 
L 155.530258 83.191304 
L 157.801628 83.191304 
L 157.801628 81.697233 
L 160.072999 81.697233 
L 160.072999 81.199209 
L 162.344369 81.199209 
L 162.344369 79.207115 
L 164.615739 79.207115 
L 164.615739 78.211067 
L 169.15848 78.211067 
L 169.15848 76.218972 
L 173.701221 76.218972 
L 173.701221 73.23083 
L 178.243962 73.23083 
L 178.243962 72.732806 
L 180.515332 72.732806 
L 180.515332 69.24664 
L 182.786703 69.24664 
L 182.786703 67.752569 
L 185.058073 67.752569 
L 185.058073 67.254545 
L 191.872185 67.254545 
L 191.872185 65.760474 
L 205.500407 65.760474 
L 205.500407 65.262451 
L 212.314518 65.262451 
L 212.314518 64.764427 
L 214.585889 64.764427 
L 214.585889 64.266403 
L 221.4 64.266403 
L 221.4 63.270356 
L 225.942741 63.270356 
L 225.942741 62.772332 
L 237.299593 62.772332 
L 237.299593 62.274308 
L 248.656445 62.274308 
L 248.656445 61.776285 
L 257.741927 61.776285 
L 257.741927 61.278261 
L 273.64152 61.278261 
L 273.64152 60.282213 
L 284.998372 60.282213 
L 284.998372 59.78419 
L 316.797558 59.78419 
L 316.797558 59.286166 
L 321.340299 59.286166 
L 321.340299 58.788142 
L 330.42578 58.788142 
L 330.42578 57.792095 
L 339.511262 57.792095 
L 339.511262 56.796047 
L 350.868114 56.796047 
L 350.868114 56.298024 
L 355.410855 56.298024 
L 355.410855 55.8 
L 373.581818 55.8 
" style="fill:none;stroke:#7f7f7f;stroke-linecap:square;stroke-width:1.5;"/>
   </g>
   <g id="line2d_21">
    <path clip-path="url(#p6be8c7b29d)" d="M 69.218182 307.8 
L 373.581818 55.8 
" style="fill:none;stroke:#bcbd22;stroke-dasharray:5.55,2.4;stroke-dashoffset:0;stroke-width:1.5;"/>
   </g>
   <g id="line2d_22">
    <path clip-path="url(#p6be8c7b29d)" d="M 69.218182 307.8 
L 69.218182 281.404743 
L 71.489552 281.404743 
L 71.489552 267.958103 
L 73.760923 267.958103 
L 73.760923 251.025296 
L 76.032293 251.025296 
L 76.032293 234.590514 
L 78.303664 234.590514 
L 78.303664 222.139921 
L 80.575034 222.139921 
L 80.575034 198.234783 
L 82.846404 198.234783 
L 82.846404 190.764427 
L 85.117775 190.764427 
L 85.117775 186.282213 
L 87.389145 186.282213 
L 87.389145 181.8 
L 89.660516 181.8 
L 89.660516 171.341502 
L 91.931886 171.341502 
L 91.931886 170.345455 
L 94.203256 170.345455 
L 94.203256 164.867194 
L 96.474627 164.867194 
L 96.474627 158.890909 
L 98.745997 158.890909 
L 98.745997 150.424506 
L 101.017368 150.424506 
L 101.017368 149.926482 
L 103.288738 149.926482 
L 103.288738 148.432411 
L 105.560109 148.432411 
L 105.560109 145.444269 
L 107.831479 145.444269 
L 107.831479 139.966008 
L 112.37422 139.966008 
L 112.37422 138.96996 
L 114.64559 138.96996 
L 114.64559 138.471937 
L 116.916961 138.471937 
L 116.916961 130.005534 
L 119.188331 130.005534 
L 119.188331 127.017391 
L 121.459701 127.017391 
L 121.459701 123.531225 
L 126.002442 123.531225 
L 126.002442 122.037154 
L 128.273813 122.037154 
L 128.273813 121.041107 
L 130.545183 121.041107 
L 130.545183 116.06087 
L 132.816554 116.06087 
L 132.816554 111.080632 
L 135.087924 111.080632 
L 135.087924 108.590514 
L 139.630665 108.590514 
L 139.630665 104.1083 
L 141.902035 104.1083 
L 141.902035 101.618182 
L 144.173406 101.618182 
L 144.173406 101.120158 
L 146.444776 101.120158 
L 146.444776 99.128063 
L 148.716147 99.128063 
L 148.716147 98.63004 
L 153.258887 98.63004 
L 153.258887 98.132016 
L 155.530258 98.132016 
L 155.530258 96.139921 
L 157.801628 96.139921 
L 157.801628 94.64585 
L 162.344369 94.64585 
L 162.344369 94.147826 
L 169.15848 94.147826 
L 169.15848 93.151779 
L 171.429851 93.151779 
L 171.429851 92.653755 
L 173.701221 92.653755 
L 173.701221 90.163636 
L 180.515332 90.163636 
L 180.515332 89.665613 
L 182.786703 89.665613 
L 182.786703 89.167589 
L 185.058073 89.167589 
L 185.058073 87.175494 
L 187.329444 87.175494 
L 187.329444 86.179447 
L 196.414925 86.179447 
L 196.414925 85.183399 
L 200.957666 85.183399 
L 200.957666 83.689328 
L 205.500407 83.689328 
L 205.500407 82.693281 
L 207.771777 82.693281 
L 207.771777 81.199209 
L 210.043148 81.199209 
L 210.043148 80.203162 
L 212.314518 80.203162 
L 212.314518 79.705138 
L 216.857259 79.705138 
L 216.857259 78.709091 
L 219.12863 78.709091 
L 219.12863 78.211067 
L 232.756852 78.211067 
L 232.756852 77.713043 
L 235.028223 77.713043 
L 235.028223 77.21502 
L 241.842334 77.21502 
L 241.842334 75.720949 
L 244.113704 75.720949 
L 244.113704 74.724901 
L 246.385075 74.724901 
L 246.385075 74.226877 
L 255.470556 74.226877 
L 255.470556 73.23083 
L 262.284668 73.23083 
L 262.284668 72.732806 
L 266.827408 72.732806 
L 266.827408 70.740711 
L 269.098779 70.740711 
L 269.098779 69.744664 
L 278.184261 69.744664 
L 278.184261 67.752569 
L 280.455631 67.752569 
L 280.455631 67.254545 
L 287.269742 67.254545 
L 287.269742 66.756522 
L 289.541113 66.756522 
L 289.541113 65.262451 
L 291.812483 65.262451 
L 291.812483 64.764427 
L 296.355224 64.764427 
L 296.355224 64.266403 
L 298.626594 64.266403 
L 298.626594 63.768379 
L 300.897965 63.768379 
L 300.897965 63.270356 
L 316.797558 63.270356 
L 316.797558 62.772332 
L 319.068928 62.772332 
L 319.068928 61.776285 
L 325.883039 61.776285 
L 325.883039 60.282213 
L 330.42578 60.282213 
L 330.42578 59.286166 
L 332.697151 59.286166 
L 332.697151 58.788142 
L 339.511262 58.788142 
L 339.511262 58.290119 
L 348.596744 58.290119 
L 348.596744 57.792095 
L 359.953596 57.792095 
L 359.953596 57.294071 
L 371.310448 57.294071 
L 371.310448 56.298024 
L 373.581818 56.298024 
L 373.581818 55.8 
L 373.581818 55.8 
" style="fill:none;stroke:#17becf;stroke-linecap:square;stroke-width:1.5;"/>
   </g>
   <g id="line2d_23">
    <path clip-path="url(#p6be8c7b29d)" d="M 69.218182 307.8 
L 373.581818 55.8 
" style="fill:none;stroke:#1f77b4;stroke-dasharray:5.55,2.4;stroke-dashoffset:0;stroke-width:1.5;"/>
   </g>
   <g id="line2d_24">
    <path clip-path="url(#p6be8c7b29d)" d="M 69.218182 307.8 
L 69.218182 264.96996 
L 71.489552 264.96996 
L 71.489552 245.547036 
L 73.760923 245.547036 
L 73.760923 241.562846 
L 76.032293 241.562846 
L 76.032293 204.211067 
L 78.303664 204.211067 
L 78.303664 185.286166 
L 80.575034 185.286166 
L 80.575034 170.843478 
L 82.846404 170.843478 
L 82.846404 168.851383 
L 85.117775 168.851383 
L 85.117775 163.871146 
L 87.389145 163.871146 
L 87.389145 158.392885 
L 89.660516 158.392885 
L 89.660516 157.894862 
L 91.931886 157.894862 
L 91.931886 157.396838 
L 94.203256 157.396838 
L 94.203256 150.424506 
L 96.474627 150.424506 
L 96.474627 144.946245 
L 98.745997 144.946245 
L 98.745997 143.950198 
L 101.017368 143.950198 
L 101.017368 137.973913 
L 103.288738 137.973913 
L 103.288738 135.981818 
L 105.560109 135.981818 
L 105.560109 135.483794 
L 110.102849 135.483794 
L 110.102849 132.993676 
L 112.37422 132.993676 
L 112.37422 131.001581 
L 114.64559 131.001581 
L 114.64559 126.519368 
L 116.916961 126.519368 
L 116.916961 126.021344 
L 119.188331 126.021344 
L 119.188331 125.025296 
L 123.731072 125.025296 
L 123.731072 122.535178 
L 126.002442 122.535178 
L 126.002442 121.53913 
L 128.273813 121.53913 
L 128.273813 116.558893 
L 130.545183 116.558893 
L 130.545183 111.578656 
L 135.087924 111.578656 
L 135.087924 109.088538 
L 139.630665 109.088538 
L 139.630665 106.598419 
L 141.902035 106.598419 
L 141.902035 105.602372 
L 144.173406 105.602372 
L 144.173406 105.104348 
L 146.444776 105.104348 
L 146.444776 100.622134 
L 148.716147 100.622134 
L 148.716147 98.63004 
L 150.987517 98.63004 
L 150.987517 97.135968 
L 153.258887 97.135968 
L 153.258887 95.143874 
L 155.530258 95.143874 
L 155.530258 94.147826 
L 157.801628 94.147826 
L 157.801628 93.649802 
L 160.072999 93.649802 
L 160.072999 93.151779 
L 166.88711 93.151779 
L 166.88711 92.653755 
L 169.15848 92.653755 
L 169.15848 92.155731 
L 173.701221 92.155731 
L 173.701221 91.657708 
L 175.972592 91.657708 
L 175.972592 91.159684 
L 182.786703 91.159684 
L 182.786703 89.167589 
L 185.058073 89.167589 
L 185.058073 87.673518 
L 187.329444 87.673518 
L 187.329444 86.67747 
L 198.686296 86.67747 
L 198.686296 85.681423 
L 200.957666 85.681423 
L 200.957666 85.183399 
L 207.771777 85.183399 
L 207.771777 84.187352 
L 210.043148 84.187352 
L 210.043148 83.689328 
L 212.314518 83.689328 
L 212.314518 82.693281 
L 214.585889 82.693281 
L 214.585889 82.195257 
L 216.857259 82.195257 
L 216.857259 81.697233 
L 219.12863 81.697233 
L 219.12863 81.199209 
L 223.67137 81.199209 
L 223.67137 80.701186 
L 228.214111 80.701186 
L 228.214111 80.203162 
L 239.570963 80.203162 
L 239.570963 79.705138 
L 241.842334 79.705138 
L 241.842334 79.207115 
L 244.113704 79.207115 
L 244.113704 77.713043 
L 248.656445 77.713043 
L 248.656445 77.21502 
L 250.927815 77.21502 
L 250.927815 74.226877 
L 255.470556 74.226877 
L 255.470556 73.728854 
L 257.741927 73.728854 
L 257.741927 72.732806 
L 260.013297 72.732806 
L 260.013297 71.736759 
L 266.827408 71.736759 
L 266.827408 71.238735 
L 269.098779 71.238735 
L 269.098779 70.740711 
L 278.184261 70.740711 
L 278.184261 68.748617 
L 280.455631 68.748617 
L 280.455631 68.250593 
L 287.269742 68.250593 
L 287.269742 67.752569 
L 291.812483 67.752569 
L 291.812483 66.258498 
L 296.355224 66.258498 
L 296.355224 65.262451 
L 300.897965 65.262451 
L 300.897965 64.764427 
L 321.340299 64.764427 
L 321.340299 64.266403 
L 323.611669 64.266403 
L 323.611669 63.768379 
L 325.883039 63.768379 
L 325.883039 62.772332 
L 328.15441 62.772332 
L 328.15441 62.274308 
L 341.782632 62.274308 
L 341.782632 61.776285 
L 348.596744 61.776285 
L 348.596744 61.278261 
L 350.868114 58.788142 
L 350.868114 58.290119 
L 357.682225 58.290119 
L 357.682225 57.294071 
L 359.953596 56.796047 
L 369.039077 56.796047 
L 369.039077 56.298024 
L 371.310448 56.298024 
L 371.310448 55.8 
L 373.581818 55.8 
L 373.581818 55.8 
" style="fill:none;stroke:#ff7f0e;stroke-linecap:square;stroke-width:1.5;"/>
   </g>
   <g id="line2d_25">
    <path clip-path="url(#p6be8c7b29d)" d="M 69.218182 307.8 
L 373.581818 55.8 
" style="fill:none;stroke:#2ca02c;stroke-dasharray:5.55,2.4;stroke-dashoffset:0;stroke-width:1.5;"/>
   </g>
   <g id="line2d_26">
    <path clip-path="url(#p6be8c7b29d)" d="M 69.218182 307.8 
L 69.218182 290.867194 
L 71.489552 290.867194 
L 71.489552 266.464032 
L 73.760923 266.464032 
L 73.760923 202.218972 
L 76.032293 202.218972 
L 76.032293 193.254545 
L 78.303664 193.254545 
L 78.303664 192.258498 
L 80.575034 192.258498 
L 80.575034 179.807905 
L 82.846404 179.807905 
L 82.846404 168.851383 
L 85.117775 168.851383 
L 85.117775 160.38498 
L 87.389145 160.38498 
L 87.389145 159.886957 
L 89.660516 159.886957 
L 89.660516 148.930435 
L 91.931886 148.930435 
L 91.931886 143.452174 
L 94.203256 143.452174 
L 94.203256 141.460079 
L 96.474627 141.460079 
L 96.474627 139.467984 
L 98.745997 139.467984 
L 98.745997 137.973913 
L 101.017368 137.973913 
L 101.017368 137.475889 
L 105.560109 137.475889 
L 105.560109 135.981818 
L 107.831479 135.981818 
L 107.831479 134.985771 
L 110.102849 134.985771 
L 110.102849 129.009486 
L 112.37422 129.009486 
L 112.37422 127.017391 
L 116.916961 127.017391 
L 116.916961 125.025296 
L 119.188331 125.025296 
L 119.188331 123.531225 
L 121.459701 123.531225 
L 121.459701 122.037154 
L 126.002442 122.037154 
L 126.002442 120.045059 
L 128.273813 120.045059 
L 128.273813 118.550988 
L 132.816554 118.550988 
L 132.816554 116.558893 
L 135.087924 116.558893 
L 135.087924 116.06087 
L 137.359294 116.06087 
L 137.359294 114.566798 
L 139.630665 114.566798 
L 139.630665 112.07668 
L 141.902035 112.07668 
L 141.902035 110.582609 
L 146.444776 110.582609 
L 146.444776 109.088538 
L 148.716147 109.088538 
L 148.716147 106.598419 
L 155.530258 106.598419 
L 155.530258 106.100395 
L 157.801628 106.100395 
L 157.801628 105.104348 
L 162.344369 105.104348 
L 162.344369 101.618182 
L 164.615739 101.618182 
L 164.615739 100.622134 
L 166.88711 100.622134 
L 166.88711 100.124111 
L 169.15848 100.124111 
L 169.15848 98.63004 
L 171.429851 98.63004 
L 171.429851 98.132016 
L 173.701221 98.132016 
L 173.701221 97.633992 
L 178.243962 97.633992 
L 178.243962 96.637945 
L 187.329444 96.637945 
L 187.329444 95.143874 
L 189.600814 95.143874 
L 189.600814 93.151779 
L 194.143555 93.151779 
L 194.143555 92.155731 
L 196.414925 92.155731 
L 196.414925 91.657708 
L 200.957666 91.657708 
L 200.957666 88.171542 
L 203.229037 88.171542 
L 203.229037 86.67747 
L 205.500407 86.67747 
L 205.500407 83.689328 
L 207.771777 83.689328 
L 207.771777 82.195257 
L 210.043148 82.195257 
L 210.043148 81.697233 
L 214.585889 81.697233 
L 214.585889 79.207115 
L 216.857259 79.207115 
L 216.857259 78.211067 
L 219.12863 78.211067 
L 219.12863 75.222925 
L 221.4 75.222925 
L 221.4 74.226877 
L 223.67137 74.226877 
L 223.67137 73.728854 
L 228.214111 73.728854 
L 228.214111 72.732806 
L 232.756852 72.732806 
L 232.756852 72.234783 
L 241.842334 72.234783 
L 241.842334 71.238735 
L 244.113704 71.238735 
L 244.113704 70.242688 
L 250.927815 70.242688 
L 250.927815 63.768379 
L 269.098779 63.768379 
L 269.098779 62.772332 
L 271.370149 62.772332 
L 271.370149 61.776285 
L 284.998372 61.776285 
L 284.998372 61.278261 
L 291.812483 61.278261 
L 291.812483 60.282213 
L 305.440706 60.282213 
L 305.440706 59.78419 
L 316.797558 59.78419 
L 316.797558 59.286166 
L 346.325373 59.286166 
L 346.325373 58.788142 
L 362.224966 58.788142 
L 362.224966 55.8 
L 373.581818 55.8 
L 373.581818 55.8 
" style="fill:none;stroke:#d62728;stroke-linecap:square;stroke-width:1.5;"/>
   </g>
   <g id="line2d_27">
    <path clip-path="url(#p6be8c7b29d)" d="M 69.218182 307.8 
L 373.581818 55.8 
" style="fill:none;stroke:#9467bd;stroke-dasharray:5.55,2.4;stroke-dashoffset:0;stroke-width:1.5;"/>
   </g>
   <g id="line2d_28">
    <path clip-path="url(#p6be8c7b29d)" d="M 69.218182 307.8 
L 69.218182 307.301976 
L 69.218182 278.914625 
L 71.489552 278.914625 
L 71.489552 215.665613 
L 73.760923 215.665613 
L 73.760923 212.67747 
L 76.032293 212.67747 
L 76.032293 206.701186 
L 78.303664 206.701186 
L 78.303664 195.24664 
L 80.575034 195.24664 
L 80.575034 171.839526 
L 82.846404 171.839526 
L 82.846404 153.412648 
L 85.117775 153.412648 
L 85.117775 152.416601 
L 87.389145 152.416601 
L 87.389145 143.950198 
L 89.660516 143.950198 
L 89.660516 137.973913 
L 91.931886 137.973913 
L 91.931886 126.519368 
L 96.474627 126.519368 
L 96.474627 118.550988 
L 101.017368 118.550988 
L 101.017368 117.056917 
L 105.560109 117.056917 
L 105.560109 115.064822 
L 107.831479 115.064822 
L 107.831479 110.582609 
L 112.37422 110.582609 
L 112.37422 109.586561 
L 116.916961 109.586561 
L 116.916961 108.590514 
L 121.459701 108.590514 
L 121.459701 105.602372 
L 123.731072 105.602372 
L 123.731072 105.104348 
L 126.002442 105.104348 
L 126.002442 103.610277 
L 130.545183 103.610277 
L 130.545183 102.614229 
L 132.816554 102.614229 
L 132.816554 100.622134 
L 137.359294 100.622134 
L 137.359294 98.132016 
L 139.630665 98.132016 
L 139.630665 97.135968 
L 141.902035 97.135968 
L 141.902035 95.641897 
L 146.444776 95.641897 
L 146.444776 92.653755 
L 148.716147 92.653755 
L 148.716147 91.657708 
L 150.987517 91.657708 
L 150.987517 87.673518 
L 153.258887 87.673518 
L 153.258887 87.175494 
L 155.530258 87.175494 
L 155.530258 85.183399 
L 157.801628 85.183399 
L 157.801628 83.689328 
L 160.072999 83.689328 
L 160.072999 80.701186 
L 164.615739 80.701186 
L 164.615739 79.705138 
L 169.15848 79.705138 
L 169.15848 77.21502 
L 178.243962 77.21502 
L 178.243962 75.720949 
L 180.515332 75.720949 
L 180.515332 75.222925 
L 182.786703 75.222925 
L 182.786703 73.728854 
L 185.058073 73.728854 
L 185.058073 73.23083 
L 187.329444 73.23083 
L 187.329444 72.732806 
L 191.872185 72.732806 
L 191.872185 70.242688 
L 196.414925 70.242688 
L 196.414925 68.748617 
L 207.771777 68.748617 
L 207.771777 67.752569 
L 210.043148 67.752569 
L 210.043148 67.254545 
L 212.314518 67.254545 
L 212.314518 66.258498 
L 216.857259 66.258498 
L 216.857259 65.760474 
L 219.12863 65.760474 
L 219.12863 65.262451 
L 230.485482 65.262451 
L 230.485482 63.768379 
L 241.842334 63.768379 
L 241.842334 63.270356 
L 246.385075 63.270356 
L 246.385075 62.772332 
L 248.656445 62.772332 
L 248.656445 61.776285 
L 260.013297 61.776285 
L 260.013297 61.278261 
L 262.284668 61.278261 
L 262.284668 60.780237 
L 291.812483 60.780237 
L 291.812483 60.282213 
L 298.626594 60.282213 
L 298.626594 59.78419 
L 300.897965 59.78419 
L 300.897965 59.286166 
L 305.440706 59.286166 
L 305.440706 58.788142 
L 314.526187 58.788142 
L 314.526187 58.290119 
L 319.068928 58.290119 
L 319.068928 57.792095 
L 323.611669 57.792095 
L 323.611669 57.294071 
L 353.139484 57.294071 
L 353.139484 56.796047 
L 359.953596 56.796047 
L 359.953596 56.298024 
L 371.310448 56.298024 
L 371.310448 55.8 
L 373.581818 55.8 
" style="fill:none;stroke:#8c564b;stroke-linecap:square;stroke-width:1.5;"/>
   </g>
   <g id="line2d_29">
    <path clip-path="url(#p6be8c7b29d)" d="M 69.218182 307.8 
L 373.581818 55.8 
" style="fill:none;stroke:#e377c2;stroke-dasharray:5.55,2.4;stroke-dashoffset:0;stroke-width:1.5;"/>
   </g>
   <g id="line2d_30">
    <path clip-path="url(#p6be8c7b29d)" d="M 69.218182 307.8 
L 69.218182 304.313834 
L 71.489552 302.321739 
L 71.489552 265.467984 
L 73.760923 265.467984 
L 73.760923 243.056917 
L 76.032293 243.056917 
L 76.032293 228.116206 
L 78.303664 228.116206 
L 78.303664 222.637945 
L 80.575034 222.637945 
L 80.575034 190.764427 
L 82.846404 190.764427 
L 82.846404 187.776285 
L 85.117775 187.776285 
L 85.117775 181.301976 
L 87.389145 181.301976 
L 87.389145 174.827668 
L 89.660516 174.827668 
L 89.660516 165.863241 
L 91.931886 165.863241 
L 91.931886 156.400791 
L 94.203256 156.400791 
L 94.203256 155.404743 
L 96.474627 155.404743 
L 96.474627 148.432411 
L 98.745997 148.432411 
L 98.745997 146.440316 
L 101.017368 146.440316 
L 101.017368 142.456126 
L 103.288738 142.456126 
L 103.288738 136.977866 
L 105.560109 136.977866 
L 105.560109 130.005534 
L 107.831479 130.005534 
L 107.831479 129.009486 
L 112.37422 129.009486 
L 112.37422 128.511462 
L 116.916961 128.511462 
L 116.916961 126.021344 
L 119.188331 126.021344 
L 119.188331 121.041107 
L 123.731072 121.041107 
L 123.731072 112.574704 
L 126.002442 112.574704 
L 126.002442 112.07668 
L 130.545183 112.07668 
L 130.545183 110.084585 
L 132.816554 110.084585 
L 132.816554 108.09249 
L 135.087924 108.09249 
L 135.087924 106.598419 
L 137.359294 106.598419 
L 137.359294 104.1083 
L 139.630665 104.1083 
L 139.630665 103.610277 
L 144.173406 103.610277 
L 144.173406 103.112253 
L 146.444776 103.112253 
L 146.444776 92.653755 
L 148.716147 92.653755 
L 148.716147 91.657708 
L 150.987517 91.657708 
L 150.987517 91.159684 
L 153.258887 91.159684 
L 153.258887 90.66166 
L 157.801628 90.66166 
L 157.801628 89.665613 
L 162.344369 89.665613 
L 162.344369 89.167589 
L 164.615739 89.167589 
L 164.615739 84.187352 
L 166.88711 84.187352 
L 166.88711 83.191304 
L 169.15848 83.191304 
L 169.15848 81.697233 
L 171.429851 81.697233 
L 171.429851 81.199209 
L 175.972592 81.199209 
L 175.972592 80.203162 
L 180.515332 80.203162 
L 180.515332 78.709091 
L 189.600814 78.709091 
L 189.600814 77.713043 
L 194.143555 77.713043 
L 194.143555 77.21502 
L 205.500407 77.21502 
L 205.500407 76.716996 
L 207.771777 76.716996 
L 207.771777 75.720949 
L 210.043148 75.720949 
L 210.043148 73.728854 
L 212.314518 73.728854 
L 212.314518 73.23083 
L 219.12863 73.23083 
L 219.12863 72.732806 
L 225.942741 72.732806 
L 225.942741 72.234783 
L 239.570963 72.234783 
L 239.570963 69.744664 
L 246.385075 69.744664 
L 246.385075 68.748617 
L 248.656445 68.748617 
L 248.656445 67.752569 
L 250.927815 67.752569 
L 250.927815 66.756522 
L 253.199186 66.756522 
L 253.199186 66.258498 
L 266.827408 66.258498 
L 266.827408 64.764427 
L 269.098779 64.764427 
L 269.098779 64.266403 
L 271.370149 64.266403 
L 271.370149 63.270356 
L 273.64152 63.270356 
L 273.64152 61.776285 
L 275.91289 61.776285 
L 275.91289 60.780237 
L 284.998372 60.780237 
L 284.998372 60.282213 
L 289.541113 60.282213 
L 289.541113 59.78419 
L 303.169335 59.78419 
L 303.169335 59.286166 
L 325.883039 59.286166 
L 325.883039 58.788142 
L 330.42578 58.788142 
L 330.42578 58.290119 
L 339.511262 58.290119 
L 339.511262 57.792095 
L 341.782632 57.792095 
L 341.782632 57.294071 
L 346.325373 57.294071 
L 346.325373 56.796047 
L 355.410855 56.796047 
L 355.410855 56.298024 
L 357.682225 56.298024 
L 357.682225 55.8 
L 373.581818 55.8 
L 373.581818 55.8 
" style="fill:none;stroke:#7f7f7f;stroke-linecap:square;stroke-width:1.5;"/>
   </g>
   <g id="patch_3">
    <path d="M 54 320.4 
L 54 43.2 
" style="fill:none;stroke:#000000;stroke-linecap:square;stroke-linejoin:miter;stroke-width:0.8;"/>
   </g>
   <g id="patch_4">
    <path d="M 388.8 320.4 
L 388.8 43.2 
" style="fill:none;stroke:#000000;stroke-linecap:square;stroke-linejoin:miter;stroke-width:0.8;"/>
   </g>
   <g id="patch_5">
    <path d="M 54 320.4 
L 388.8 320.4 
" style="fill:none;stroke:#000000;stroke-linecap:square;stroke-linejoin:miter;stroke-width:0.8;"/>
   </g>
   <g id="patch_6">
    <path d="M 54 43.2 
L 388.8 43.2 
" style="fill:none;stroke:#000000;stroke-linecap:square;stroke-linejoin:miter;stroke-width:0.8;"/>
   </g>
   <g id="text_15">
    <!-- roc-plot -->
    <g transform="translate(198.434063 37.2)scale(0.12 -0.12)">
     <defs>
      <path d="M 1959 3097 
Q 1497 3097 1228 2736 
Q 959 2375 959 1747 
Q 959 1119 1226 758 
Q 1494 397 1959 397 
Q 2419 397 2687 759 
Q 2956 1122 2956 1747 
Q 2956 2369 2687 2733 
Q 2419 3097 1959 3097 
z
M 1959 3584 
Q 2709 3584 3137 3096 
Q 3566 2609 3566 1747 
Q 3566 888 3137 398 
Q 2709 -91 1959 -91 
Q 1206 -91 779 398 
Q 353 888 353 1747 
Q 353 2609 779 3096 
Q 1206 3584 1959 3584 
z
" id="DejaVuSans-6f" transform="scale(0.015625)"/>
      <path d="M 3122 3366 
L 3122 2828 
Q 2878 2963 2633 3030 
Q 2388 3097 2138 3097 
Q 1578 3097 1268 2742 
Q 959 2388 959 1747 
Q 959 1106 1268 751 
Q 1578 397 2138 397 
Q 2388 397 2633 464 
Q 2878 531 3122 666 
L 3122 134 
Q 2881 22 2623 -34 
Q 2366 -91 2075 -91 
Q 1284 -91 818 406 
Q 353 903 353 1747 
Q 353 2603 823 3093 
Q 1294 3584 2113 3584 
Q 2378 3584 2631 3529 
Q 2884 3475 3122 3366 
z
" id="DejaVuSans-63" transform="scale(0.015625)"/>
      <path d="M 313 2009 
L 1997 2009 
L 1997 1497 
L 313 1497 
L 313 2009 
z
" id="DejaVuSans-2d" transform="scale(0.015625)"/>
      <path d="M 603 4863 
L 1178 4863 
L 1178 0 
L 603 0 
L 603 4863 
z
" id="DejaVuSans-6c" transform="scale(0.015625)"/>
     </defs>
     <use xlink:href="#DejaVuSans-72"/>
     <use x="38.863281" xlink:href="#DejaVuSans-6f"/>
     <use x="100.044922" xlink:href="#DejaVuSans-63"/>
     <use x="155.025391" xlink:href="#DejaVuSans-2d"/>
     <use x="191.109375" xlink:href="#DejaVuSans-70"/>
     <use x="254.585938" xlink:href="#DejaVuSans-6c"/>
     <use x="282.369141" xlink:href="#DejaVuSans-6f"/>
     <use x="343.550781" xlink:href="#DejaVuSans-74"/>
    </g>
   </g>
   <g id="legend_1">
    <g id="patch_7">
     <path d="M 251.160937 315.4 
L 381.8 315.4 
Q 383.8 315.4 383.8 313.4 
L 383.8 182.01875 
Q 383.8 180.01875 381.8 180.01875 
L 251.160937 180.01875 
Q 249.160937 180.01875 249.160937 182.01875 
L 249.160937 313.4 
Q 249.160937 315.4 251.160937 315.4 
z
" style="fill:#ffffff;opacity:0.8;stroke:#cccccc;stroke-linejoin:miter;"/>
    </g>
    <g id="line2d_31">
     <path d="M 253.160937 188.117188 
L 273.160937 188.117188 
" style="fill:none;stroke:#ff7f0e;stroke-linecap:square;stroke-width:1.5;"/>
    </g>
    <g id="line2d_32"/>
    <g id="text_16">
     <!-- ResNet: 0.84 -->
     <g transform="translate(281.160937 191.617188)scale(0.1 -0.1)">
      <defs>
       <path d="M 2841 2188 
Q 3044 2119 3236 1894 
Q 3428 1669 3622 1275 
L 4263 0 
L 3584 0 
L 2988 1197 
Q 2756 1666 2539 1819 
Q 2322 1972 1947 1972 
L 1259 1972 
L 1259 0 
L 628 0 
L 628 4666 
L 2053 4666 
Q 2853 4666 3247 4331 
Q 3641 3997 3641 3322 
Q 3641 2881 3436 2590 
Q 3231 2300 2841 2188 
z
M 1259 4147 
L 1259 2491 
L 2053 2491 
Q 2509 2491 2742 2702 
Q 2975 2913 2975 3322 
Q 2975 3731 2742 3939 
Q 2509 4147 2053 4147 
L 1259 4147 
z
" id="DejaVuSans-52" transform="scale(0.015625)"/>
       <path d="M 3597 1894 
L 3597 1613 
L 953 1613 
Q 991 1019 1311 708 
Q 1631 397 2203 397 
Q 2534 397 2845 478 
Q 3156 559 3463 722 
L 3463 178 
Q 3153 47 2828 -22 
Q 2503 -91 2169 -91 
Q 1331 -91 842 396 
Q 353 884 353 1716 
Q 353 2575 817 3079 
Q 1281 3584 2069 3584 
Q 2775 3584 3186 3129 
Q 3597 2675 3597 1894 
z
M 3022 2063 
Q 3016 2534 2758 2815 
Q 2500 3097 2075 3097 
Q 1594 3097 1305 2825 
Q 1016 2553 972 2059 
L 3022 2063 
z
" id="DejaVuSans-65" transform="scale(0.015625)"/>
       <path d="M 2834 3397 
L 2834 2853 
Q 2591 2978 2328 3040 
Q 2066 3103 1784 3103 
Q 1356 3103 1142 2972 
Q 928 2841 928 2578 
Q 928 2378 1081 2264 
Q 1234 2150 1697 2047 
L 1894 2003 
Q 2506 1872 2764 1633 
Q 3022 1394 3022 966 
Q 3022 478 2636 193 
Q 2250 -91 1575 -91 
Q 1294 -91 989 -36 
Q 684 19 347 128 
L 347 722 
Q 666 556 975 473 
Q 1284 391 1588 391 
Q 1994 391 2212 530 
Q 2431 669 2431 922 
Q 2431 1156 2273 1281 
Q 2116 1406 1581 1522 
L 1381 1569 
Q 847 1681 609 1914 
Q 372 2147 372 2553 
Q 372 3047 722 3315 
Q 1072 3584 1716 3584 
Q 2034 3584 2315 3537 
Q 2597 3491 2834 3397 
z
" id="DejaVuSans-73" transform="scale(0.015625)"/>
       <path d="M 628 4666 
L 1478 4666 
L 3547 763 
L 3547 4666 
L 4159 4666 
L 4159 0 
L 3309 0 
L 1241 3903 
L 1241 0 
L 628 0 
L 628 4666 
z
" id="DejaVuSans-4e" transform="scale(0.015625)"/>
       <path d="M 750 794 
L 1409 794 
L 1409 0 
L 750 0 
L 750 794 
z
M 750 3309 
L 1409 3309 
L 1409 2516 
L 750 2516 
L 750 3309 
z
" id="DejaVuSans-3a" transform="scale(0.015625)"/>
       <path id="DejaVuSans-20" transform="scale(0.015625)"/>
      </defs>
      <use xlink:href="#DejaVuSans-52"/>
      <use x="64.982422" xlink:href="#DejaVuSans-65"/>
      <use x="126.505859" xlink:href="#DejaVuSans-73"/>
      <use x="178.605469" xlink:href="#DejaVuSans-4e"/>
      <use x="253.410156" xlink:href="#DejaVuSans-65"/>
      <use x="314.933594" xlink:href="#DejaVuSans-74"/>
      <use x="354.142578" xlink:href="#DejaVuSans-3a"/>
      <use x="387.833984" xlink:href="#DejaVuSans-20"/>
      <use x="419.621094" xlink:href="#DejaVuSans-30"/>
      <use x="483.244141" xlink:href="#DejaVuSans-2e"/>
      <use x="515.03125" xlink:href="#DejaVuSans-38"/>
      <use x="578.654297" xlink:href="#DejaVuSans-34"/>
     </g>
    </g>
    <g id="line2d_33">
     <path d="M 253.160937 202.795313 
L 273.160937 202.795313 
" style="fill:none;stroke:#d62728;stroke-linecap:square;stroke-width:1.5;"/>
    </g>
    <g id="line2d_34"/>
    <g id="text_17">
     <!-- MobileNetv2: 0.91 -->
     <g transform="translate(281.160937 206.295313)scale(0.1 -0.1)">
      <defs>
       <path d="M 628 4666 
L 1569 4666 
L 2759 1491 
L 3956 4666 
L 4897 4666 
L 4897 0 
L 4281 0 
L 4281 4097 
L 3078 897 
L 2444 897 
L 1241 4097 
L 1241 0 
L 628 0 
L 628 4666 
z
" id="DejaVuSans-4d" transform="scale(0.015625)"/>
       <path d="M 3116 1747 
Q 3116 2381 2855 2742 
Q 2594 3103 2138 3103 
Q 1681 3103 1420 2742 
Q 1159 2381 1159 1747 
Q 1159 1113 1420 752 
Q 1681 391 2138 391 
Q 2594 391 2855 752 
Q 3116 1113 3116 1747 
z
M 1159 2969 
Q 1341 3281 1617 3432 
Q 1894 3584 2278 3584 
Q 2916 3584 3314 3078 
Q 3713 2572 3713 1747 
Q 3713 922 3314 415 
Q 2916 -91 2278 -91 
Q 1894 -91 1617 61 
Q 1341 213 1159 525 
L 1159 0 
L 581 0 
L 581 4863 
L 1159 4863 
L 1159 2969 
z
" id="DejaVuSans-62" transform="scale(0.015625)"/>
       <path d="M 603 3500 
L 1178 3500 
L 1178 0 
L 603 0 
L 603 3500 
z
M 603 4863 
L 1178 4863 
L 1178 4134 
L 603 4134 
L 603 4863 
z
" id="DejaVuSans-69" transform="scale(0.015625)"/>
       <path d="M 191 3500 
L 800 3500 
L 1894 563 
L 2988 3500 
L 3597 3500 
L 2284 0 
L 1503 0 
L 191 3500 
z
" id="DejaVuSans-76" transform="scale(0.015625)"/>
       <path d="M 703 97 
L 703 672 
Q 941 559 1184 500 
Q 1428 441 1663 441 
Q 2288 441 2617 861 
Q 2947 1281 2994 2138 
Q 2813 1869 2534 1725 
Q 2256 1581 1919 1581 
Q 1219 1581 811 2004 
Q 403 2428 403 3163 
Q 403 3881 828 4315 
Q 1253 4750 1959 4750 
Q 2769 4750 3195 4129 
Q 3622 3509 3622 2328 
Q 3622 1225 3098 567 
Q 2575 -91 1691 -91 
Q 1453 -91 1209 -44 
Q 966 3 703 97 
z
M 1959 2075 
Q 2384 2075 2632 2365 
Q 2881 2656 2881 3163 
Q 2881 3666 2632 3958 
Q 2384 4250 1959 4250 
Q 1534 4250 1286 3958 
Q 1038 3666 1038 3163 
Q 1038 2656 1286 2365 
Q 1534 2075 1959 2075 
z
" id="DejaVuSans-39" transform="scale(0.015625)"/>
      </defs>
      <use xlink:href="#DejaVuSans-4d"/>
      <use x="86.279297" xlink:href="#DejaVuSans-6f"/>
      <use x="147.460938" xlink:href="#DejaVuSans-62"/>
      <use x="210.9375" xlink:href="#DejaVuSans-69"/>
      <use x="238.720703" xlink:href="#DejaVuSans-6c"/>
      <use x="266.503906" xlink:href="#DejaVuSans-65"/>
      <use x="328.027344" xlink:href="#DejaVuSans-4e"/>
      <use x="402.832031" xlink:href="#DejaVuSans-65"/>
      <use x="464.355469" xlink:href="#DejaVuSans-74"/>
      <use x="503.564453" xlink:href="#DejaVuSans-76"/>
      <use x="562.744141" xlink:href="#DejaVuSans-32"/>
      <use x="626.367188" xlink:href="#DejaVuSans-3a"/>
      <use x="660.058594" xlink:href="#DejaVuSans-20"/>
      <use x="691.845703" xlink:href="#DejaVuSans-30"/>
      <use x="755.46875" xlink:href="#DejaVuSans-2e"/>
      <use x="787.255859" xlink:href="#DejaVuSans-39"/>
      <use x="850.878906" xlink:href="#DejaVuSans-31"/>
     </g>
    </g>
    <g id="line2d_35">
     <path d="M 253.160937 217.473437 
L 273.160937 217.473437 
" style="fill:none;stroke:#8c564b;stroke-linecap:square;stroke-width:1.5;"/>
    </g>
    <g id="line2d_36"/>
    <g id="text_18">
     <!-- GoogleNet: 0.91 -->
     <g transform="translate(281.160937 220.973437)scale(0.1 -0.1)">
      <defs>
       <path d="M 3809 666 
L 3809 1919 
L 2778 1919 
L 2778 2438 
L 4434 2438 
L 4434 434 
Q 4069 175 3628 42 
Q 3188 -91 2688 -91 
Q 1594 -91 976 548 
Q 359 1188 359 2328 
Q 359 3472 976 4111 
Q 1594 4750 2688 4750 
Q 3144 4750 3555 4637 
Q 3966 4525 4313 4306 
L 4313 3634 
Q 3963 3931 3569 4081 
Q 3175 4231 2741 4231 
Q 1884 4231 1454 3753 
Q 1025 3275 1025 2328 
Q 1025 1384 1454 906 
Q 1884 428 2741 428 
Q 3075 428 3337 486 
Q 3600 544 3809 666 
z
" id="DejaVuSans-47" transform="scale(0.015625)"/>
       <path d="M 2906 1791 
Q 2906 2416 2648 2759 
Q 2391 3103 1925 3103 
Q 1463 3103 1205 2759 
Q 947 2416 947 1791 
Q 947 1169 1205 825 
Q 1463 481 1925 481 
Q 2391 481 2648 825 
Q 2906 1169 2906 1791 
z
M 3481 434 
Q 3481 -459 3084 -895 
Q 2688 -1331 1869 -1331 
Q 1566 -1331 1297 -1286 
Q 1028 -1241 775 -1147 
L 775 -588 
Q 1028 -725 1275 -790 
Q 1522 -856 1778 -856 
Q 2344 -856 2625 -561 
Q 2906 -266 2906 331 
L 2906 616 
Q 2728 306 2450 153 
Q 2172 0 1784 0 
Q 1141 0 747 490 
Q 353 981 353 1791 
Q 353 2603 747 3093 
Q 1141 3584 1784 3584 
Q 2172 3584 2450 3431 
Q 2728 3278 2906 2969 
L 2906 3500 
L 3481 3500 
L 3481 434 
z
" id="DejaVuSans-67" transform="scale(0.015625)"/>
      </defs>
      <use xlink:href="#DejaVuSans-47"/>
      <use x="77.490234" xlink:href="#DejaVuSans-6f"/>
      <use x="138.671875" xlink:href="#DejaVuSans-6f"/>
      <use x="199.853516" xlink:href="#DejaVuSans-67"/>
      <use x="263.330078" xlink:href="#DejaVuSans-6c"/>
      <use x="291.113281" xlink:href="#DejaVuSans-65"/>
      <use x="352.636719" xlink:href="#DejaVuSans-4e"/>
      <use x="427.441406" xlink:href="#DejaVuSans-65"/>
      <use x="488.964844" xlink:href="#DejaVuSans-74"/>
      <use x="528.173828" xlink:href="#DejaVuSans-3a"/>
      <use x="561.865234" xlink:href="#DejaVuSans-20"/>
      <use x="593.652344" xlink:href="#DejaVuSans-30"/>
      <use x="657.275391" xlink:href="#DejaVuSans-2e"/>
      <use x="689.0625" xlink:href="#DejaVuSans-39"/>
      <use x="752.685547" xlink:href="#DejaVuSans-31"/>
     </g>
    </g>
    <g id="line2d_37">
     <path d="M 253.160937 232.151563 
L 273.160937 232.151563 
" style="fill:none;stroke:#7f7f7f;stroke-linecap:square;stroke-width:1.5;"/>
    </g>
    <g id="line2d_38"/>
    <g id="text_19">
     <!-- Efficientb2: 0.89 -->
     <g transform="translate(281.160937 235.651563)scale(0.1 -0.1)">
      <defs>
       <path d="M 628 4666 
L 3578 4666 
L 3578 4134 
L 1259 4134 
L 1259 2753 
L 3481 2753 
L 3481 2222 
L 1259 2222 
L 1259 531 
L 3634 531 
L 3634 0 
L 628 0 
L 628 4666 
z
" id="DejaVuSans-45" transform="scale(0.015625)"/>
       <path d="M 3513 2113 
L 3513 0 
L 2938 0 
L 2938 2094 
Q 2938 2591 2744 2837 
Q 2550 3084 2163 3084 
Q 1697 3084 1428 2787 
Q 1159 2491 1159 1978 
L 1159 0 
L 581 0 
L 581 3500 
L 1159 3500 
L 1159 2956 
Q 1366 3272 1645 3428 
Q 1925 3584 2291 3584 
Q 2894 3584 3203 3211 
Q 3513 2838 3513 2113 
z
" id="DejaVuSans-6e" transform="scale(0.015625)"/>
      </defs>
      <use xlink:href="#DejaVuSans-45"/>
      <use x="63.183594" xlink:href="#DejaVuSans-66"/>
      <use x="98.388672" xlink:href="#DejaVuSans-66"/>
      <use x="133.59375" xlink:href="#DejaVuSans-69"/>
      <use x="161.376953" xlink:href="#DejaVuSans-63"/>
      <use x="216.357422" xlink:href="#DejaVuSans-69"/>
      <use x="244.140625" xlink:href="#DejaVuSans-65"/>
      <use x="305.664062" xlink:href="#DejaVuSans-6e"/>
      <use x="369.042969" xlink:href="#DejaVuSans-74"/>
      <use x="408.251953" xlink:href="#DejaVuSans-62"/>
      <use x="471.728516" xlink:href="#DejaVuSans-32"/>
      <use x="535.351562" xlink:href="#DejaVuSans-3a"/>
      <use x="569.042969" xlink:href="#DejaVuSans-20"/>
      <use x="600.830078" xlink:href="#DejaVuSans-30"/>
      <use x="664.453125" xlink:href="#DejaVuSans-2e"/>
      <use x="696.240234" xlink:href="#DejaVuSans-38"/>
      <use x="759.863281" xlink:href="#DejaVuSans-39"/>
     </g>
    </g>
    <g id="line2d_39">
     <path d="M 253.160937 246.829688 
L 273.160937 246.829688 
" style="fill:none;stroke:#17becf;stroke-linecap:square;stroke-width:1.5;"/>
    </g>
    <g id="line2d_40"/>
    <g id="text_20">
     <!-- Inception: 0.85 -->
     <g transform="translate(281.160937 250.329688)scale(0.1 -0.1)">
      <defs>
       <path d="M 628 4666 
L 1259 4666 
L 1259 0 
L 628 0 
L 628 4666 
z
" id="DejaVuSans-49" transform="scale(0.015625)"/>
       <path d="M 691 4666 
L 3169 4666 
L 3169 4134 
L 1269 4134 
L 1269 2991 
Q 1406 3038 1543 3061 
Q 1681 3084 1819 3084 
Q 2600 3084 3056 2656 
Q 3513 2228 3513 1497 
Q 3513 744 3044 326 
Q 2575 -91 1722 -91 
Q 1428 -91 1123 -41 
Q 819 9 494 109 
L 494 744 
Q 775 591 1075 516 
Q 1375 441 1709 441 
Q 2250 441 2565 725 
Q 2881 1009 2881 1497 
Q 2881 1984 2565 2268 
Q 2250 2553 1709 2553 
Q 1456 2553 1204 2497 
Q 953 2441 691 2322 
L 691 4666 
z
" id="DejaVuSans-35" transform="scale(0.015625)"/>
      </defs>
      <use xlink:href="#DejaVuSans-49"/>
      <use x="29.492188" xlink:href="#DejaVuSans-6e"/>
      <use x="92.871094" xlink:href="#DejaVuSans-63"/>
      <use x="147.851562" xlink:href="#DejaVuSans-65"/>
      <use x="209.375" xlink:href="#DejaVuSans-70"/>
      <use x="272.851562" xlink:href="#DejaVuSans-74"/>
      <use x="312.060547" xlink:href="#DejaVuSans-69"/>
      <use x="339.84375" xlink:href="#DejaVuSans-6f"/>
      <use x="401.025391" xlink:href="#DejaVuSans-6e"/>
      <use x="464.404297" xlink:href="#DejaVuSans-3a"/>
      <use x="498.095703" xlink:href="#DejaVuSans-20"/>
      <use x="529.882812" xlink:href="#DejaVuSans-30"/>
      <use x="593.505859" xlink:href="#DejaVuSans-2e"/>
      <use x="625.292969" xlink:href="#DejaVuSans-38"/>
      <use x="688.916016" xlink:href="#DejaVuSans-35"/>
     </g>
    </g>
    <g id="line2d_41">
     <path d="M 253.160937 261.507812 
L 273.160937 261.507812 
" style="fill:none;stroke:#ff7f0e;stroke-linecap:square;stroke-width:1.5;"/>
    </g>
    <g id="line2d_42"/>
    <g id="text_21">
     <!-- SqueezeNet: 0.85 -->
     <g transform="translate(281.160937 265.007812)scale(0.1 -0.1)">
      <defs>
       <path d="M 3425 4513 
L 3425 3897 
Q 3066 4069 2747 4153 
Q 2428 4238 2131 4238 
Q 1616 4238 1336 4038 
Q 1056 3838 1056 3469 
Q 1056 3159 1242 3001 
Q 1428 2844 1947 2747 
L 2328 2669 
Q 3034 2534 3370 2195 
Q 3706 1856 3706 1288 
Q 3706 609 3251 259 
Q 2797 -91 1919 -91 
Q 1588 -91 1214 -16 
Q 841 59 441 206 
L 441 856 
Q 825 641 1194 531 
Q 1563 422 1919 422 
Q 2459 422 2753 634 
Q 3047 847 3047 1241 
Q 3047 1584 2836 1778 
Q 2625 1972 2144 2069 
L 1759 2144 
Q 1053 2284 737 2584 
Q 422 2884 422 3419 
Q 422 4038 858 4394 
Q 1294 4750 2059 4750 
Q 2388 4750 2728 4690 
Q 3069 4631 3425 4513 
z
" id="DejaVuSans-53" transform="scale(0.015625)"/>
       <path d="M 947 1747 
Q 947 1113 1208 752 
Q 1469 391 1925 391 
Q 2381 391 2643 752 
Q 2906 1113 2906 1747 
Q 2906 2381 2643 2742 
Q 2381 3103 1925 3103 
Q 1469 3103 1208 2742 
Q 947 2381 947 1747 
z
M 2906 525 
Q 2725 213 2448 61 
Q 2172 -91 1784 -91 
Q 1150 -91 751 415 
Q 353 922 353 1747 
Q 353 2572 751 3078 
Q 1150 3584 1784 3584 
Q 2172 3584 2448 3432 
Q 2725 3281 2906 2969 
L 2906 3500 
L 3481 3500 
L 3481 -1331 
L 2906 -1331 
L 2906 525 
z
" id="DejaVuSans-71" transform="scale(0.015625)"/>
       <path d="M 544 1381 
L 544 3500 
L 1119 3500 
L 1119 1403 
Q 1119 906 1312 657 
Q 1506 409 1894 409 
Q 2359 409 2629 706 
Q 2900 1003 2900 1516 
L 2900 3500 
L 3475 3500 
L 3475 0 
L 2900 0 
L 2900 538 
Q 2691 219 2414 64 
Q 2138 -91 1772 -91 
Q 1169 -91 856 284 
Q 544 659 544 1381 
z
M 1991 3584 
L 1991 3584 
z
" id="DejaVuSans-75" transform="scale(0.015625)"/>
       <path d="M 353 3500 
L 3084 3500 
L 3084 2975 
L 922 459 
L 3084 459 
L 3084 0 
L 275 0 
L 275 525 
L 2438 3041 
L 353 3041 
L 353 3500 
z
" id="DejaVuSans-7a" transform="scale(0.015625)"/>
      </defs>
      <use xlink:href="#DejaVuSans-53"/>
      <use x="63.476562" xlink:href="#DejaVuSans-71"/>
      <use x="126.953125" xlink:href="#DejaVuSans-75"/>
      <use x="190.332031" xlink:href="#DejaVuSans-65"/>
      <use x="251.855469" xlink:href="#DejaVuSans-65"/>
      <use x="313.378906" xlink:href="#DejaVuSans-7a"/>
      <use x="365.869141" xlink:href="#DejaVuSans-65"/>
      <use x="427.392578" xlink:href="#DejaVuSans-4e"/>
      <use x="502.197266" xlink:href="#DejaVuSans-65"/>
      <use x="563.720703" xlink:href="#DejaVuSans-74"/>
      <use x="602.929688" xlink:href="#DejaVuSans-3a"/>
      <use x="636.621094" xlink:href="#DejaVuSans-20"/>
      <use x="668.408203" xlink:href="#DejaVuSans-30"/>
      <use x="732.03125" xlink:href="#DejaVuSans-2e"/>
      <use x="763.818359" xlink:href="#DejaVuSans-38"/>
      <use x="827.441406" xlink:href="#DejaVuSans-35"/>
     </g>
    </g>
    <g id="line2d_43">
     <path d="M 253.160937 276.185938 
L 273.160937 276.185938 
" style="fill:none;stroke:#d62728;stroke-linecap:square;stroke-width:1.5;"/>
    </g>
    <g id="line2d_44"/>
    <g id="text_22">
     <!-- Inception_aux: 0.86 -->
     <g transform="translate(281.160937 279.685938)scale(0.1 -0.1)">
      <defs>
       <path d="M 3263 -1063 
L 3263 -1509 
L -63 -1509 
L -63 -1063 
L 3263 -1063 
z
" id="DejaVuSans-5f" transform="scale(0.015625)"/>
       <path d="M 2194 1759 
Q 1497 1759 1228 1600 
Q 959 1441 959 1056 
Q 959 750 1161 570 
Q 1363 391 1709 391 
Q 2188 391 2477 730 
Q 2766 1069 2766 1631 
L 2766 1759 
L 2194 1759 
z
M 3341 1997 
L 3341 0 
L 2766 0 
L 2766 531 
Q 2569 213 2275 61 
Q 1981 -91 1556 -91 
Q 1019 -91 701 211 
Q 384 513 384 1019 
Q 384 1609 779 1909 
Q 1175 2209 1959 2209 
L 2766 2209 
L 2766 2266 
Q 2766 2663 2505 2880 
Q 2244 3097 1772 3097 
Q 1472 3097 1187 3025 
Q 903 2953 641 2809 
L 641 3341 
Q 956 3463 1253 3523 
Q 1550 3584 1831 3584 
Q 2591 3584 2966 3190 
Q 3341 2797 3341 1997 
z
" id="DejaVuSans-61" transform="scale(0.015625)"/>
       <path d="M 3513 3500 
L 2247 1797 
L 3578 0 
L 2900 0 
L 1881 1375 
L 863 0 
L 184 0 
L 1544 1831 
L 300 3500 
L 978 3500 
L 1906 2253 
L 2834 3500 
L 3513 3500 
z
" id="DejaVuSans-78" transform="scale(0.015625)"/>
      </defs>
      <use xlink:href="#DejaVuSans-49"/>
      <use x="29.492188" xlink:href="#DejaVuSans-6e"/>
      <use x="92.871094" xlink:href="#DejaVuSans-63"/>
      <use x="147.851562" xlink:href="#DejaVuSans-65"/>
      <use x="209.375" xlink:href="#DejaVuSans-70"/>
      <use x="272.851562" xlink:href="#DejaVuSans-74"/>
      <use x="312.060547" xlink:href="#DejaVuSans-69"/>
      <use x="339.84375" xlink:href="#DejaVuSans-6f"/>
      <use x="401.025391" xlink:href="#DejaVuSans-6e"/>
      <use x="464.404297" xlink:href="#DejaVuSans-5f"/>
      <use x="514.404297" xlink:href="#DejaVuSans-61"/>
      <use x="575.683594" xlink:href="#DejaVuSans-75"/>
      <use x="639.0625" xlink:href="#DejaVuSans-78"/>
      <use x="698.242188" xlink:href="#DejaVuSans-3a"/>
      <use x="731.933594" xlink:href="#DejaVuSans-20"/>
      <use x="763.720703" xlink:href="#DejaVuSans-30"/>
      <use x="827.34375" xlink:href="#DejaVuSans-2e"/>
      <use x="859.130859" xlink:href="#DejaVuSans-38"/>
      <use x="922.753906" xlink:href="#DejaVuSans-36"/>
     </g>
    </g>
    <g id="line2d_45">
     <path d="M 253.160937 291.142187 
L 273.160937 291.142187 
" style="fill:none;stroke:#8c564b;stroke-linecap:square;stroke-width:1.5;"/>
    </g>
    <g id="line2d_46"/>
    <g id="text_23">
     <!-- Efficientb0: 0.90 -->
     <g transform="translate(281.160937 294.642187)scale(0.1 -0.1)">
      <use xlink:href="#DejaVuSans-45"/>
      <use x="63.183594" xlink:href="#DejaVuSans-66"/>
      <use x="98.388672" xlink:href="#DejaVuSans-66"/>
      <use x="133.59375" xlink:href="#DejaVuSans-69"/>
      <use x="161.376953" xlink:href="#DejaVuSans-63"/>
      <use x="216.357422" xlink:href="#DejaVuSans-69"/>
      <use x="244.140625" xlink:href="#DejaVuSans-65"/>
      <use x="305.664062" xlink:href="#DejaVuSans-6e"/>
      <use x="369.042969" xlink:href="#DejaVuSans-74"/>
      <use x="408.251953" xlink:href="#DejaVuSans-62"/>
      <use x="471.728516" xlink:href="#DejaVuSans-30"/>
      <use x="535.351562" xlink:href="#DejaVuSans-3a"/>
      <use x="569.042969" xlink:href="#DejaVuSans-20"/>
      <use x="600.830078" xlink:href="#DejaVuSans-30"/>
      <use x="664.453125" xlink:href="#DejaVuSans-2e"/>
      <use x="696.240234" xlink:href="#DejaVuSans-39"/>
      <use x="759.863281" xlink:href="#DejaVuSans-30"/>
     </g>
    </g>
    <g id="line2d_47">
     <path d="M 253.160937 305.820312 
L 273.160937 305.820312 
" style="fill:none;stroke:#7f7f7f;stroke-linecap:square;stroke-width:1.5;"/>
    </g>
    <g id="line2d_48"/>
    <g id="text_24">
     <!-- ShuffleNet: 0.87 -->
     <g transform="translate(281.160937 309.320312)scale(0.1 -0.1)">
      <defs>
       <path d="M 3513 2113 
L 3513 0 
L 2938 0 
L 2938 2094 
Q 2938 2591 2744 2837 
Q 2550 3084 2163 3084 
Q 1697 3084 1428 2787 
Q 1159 2491 1159 1978 
L 1159 0 
L 581 0 
L 581 4863 
L 1159 4863 
L 1159 2956 
Q 1366 3272 1645 3428 
Q 1925 3584 2291 3584 
Q 2894 3584 3203 3211 
Q 3513 2838 3513 2113 
z
" id="DejaVuSans-68" transform="scale(0.015625)"/>
       <path d="M 525 4666 
L 3525 4666 
L 3525 4397 
L 1831 0 
L 1172 0 
L 2766 4134 
L 525 4134 
L 525 4666 
z
" id="DejaVuSans-37" transform="scale(0.015625)"/>
      </defs>
      <use xlink:href="#DejaVuSans-53"/>
      <use x="63.476562" xlink:href="#DejaVuSans-68"/>
      <use x="126.855469" xlink:href="#DejaVuSans-75"/>
      <use x="190.234375" xlink:href="#DejaVuSans-66"/>
      <use x="225.439453" xlink:href="#DejaVuSans-66"/>
      <use x="260.644531" xlink:href="#DejaVuSans-6c"/>
      <use x="288.427734" xlink:href="#DejaVuSans-65"/>
      <use x="349.951172" xlink:href="#DejaVuSans-4e"/>
      <use x="424.755859" xlink:href="#DejaVuSans-65"/>
      <use x="486.279297" xlink:href="#DejaVuSans-74"/>
      <use x="525.488281" xlink:href="#DejaVuSans-3a"/>
      <use x="559.179688" xlink:href="#DejaVuSans-20"/>
      <use x="590.966797" xlink:href="#DejaVuSans-30"/>
      <use x="654.589844" xlink:href="#DejaVuSans-2e"/>
      <use x="686.376953" xlink:href="#DejaVuSans-38"/>
      <use x="750" xlink:href="#DejaVuSans-37"/>
     </g>
    </g>
   </g>
  </g>
 </g>
 <defs>
  <clipPath id="p6be8c7b29d">
   <rect height="277.2" width="334.8" x="54" y="43.2"/>
  </clipPath>
 </defs>
</svg>
